<svg fill="currentColor" xmlns="http://www.w3.org/2000/svg" viewBox="0 0 512 512"><path d="M218.3 48a5.7 5.7 0 1 0 11.4 0 5.7 5.7 0 1 0-11.4 0zM234.3 48a5.7 5.7 0 1 0 11.4 0 5.7 5.7 0 1 0-11.4 0zM250.3 48a5.7 5.7 0 1 0 11.4 0 5.7 5.7 0 1 0-11.4 0zM266.3 48a5.7 5.7 0 1 0 11.4 0 5.7 5.7 0 1 0-11.4 0zM282.3 48a5.7 5.7 0 1 0 11.4 0 5.7 5.7 0 1 0-11.4 0zM298.3 48a5.7 5.7 0 1 0 11.4 0 5.7 5.7 0 1 0-11.4 0zM314.3 48a5.7 5.7 0 1 0 11.4 0 5.7 5.7 0 1 0-11.4 0zM330.3 48a5.7 5.7 0 1 0 11.4 0 5.7 5.7 0 1 0-11.4 0zM346.3 48a5.7 5.7 0 1 0 11.4 0 5.7 5.7 0 1 0-11.4 0zM202.3 64a5.7 5.7 0 1 0 11.4 0 5.7 5.7 0 1 0-11.4 0zM218.3 64a5.7 5.7 0 1 0 11.4 0 5.7 5.7 0 1 0-11.4 0zM234.3 64a5.7 5.7 0 1 0 11.4 0 5.7 5.7 0 1 0-11.4 0zM250.3 64a5.7 5.7 0 1 0 11.4 0 5.7 5.7 0 1 0-11.4 0zM266.3 64a5.7 5.7 0 1 0 11.4 0 5.7 5.7 0 1 0-11.4 0zM282.3 64a5.7 5.7 0 1 0 11.4 0 5.7 5.7 0 1 0-11.4 0zM298.3 64a5.7 5.7 0 1 0 11.4 0 5.7 5.7 0 1 0-11.4 0zM314.3 64a5.7 5.7 0 1 0 11.4 0 5.7 5.7 0 1 0-11.4 0zM330.3 64a5.7 5.7 0 1 0 11.4 0 5.7 5.7 0 1 0-11.4 0zM186.3 80a5.7 5.7 0 1 0 11.4 0 5.7 5.7 0 1 0-11.4 0zM202.3 80a5.7 5.7 0 1 0 11.4 0 5.7 5.7 0 1 0-11.4 0zM218.3 80a5.7 5.7 0 1 0 11.4 0 5.7 5.7 0 1 0-11.4 0zM234.3 80a5.7 5.7 0 1 0 11.4 0 5.7 5.7 0 1 0-11.4 0zM170.3 96a5.7 5.7 0 1 0 11.4 0 5.7 5.7 0 1 0-11.4 0zM186.3 96a5.7 5.7 0 1 0 11.4 0 5.7 5.7 0 1 0-11.4 0zM202.3 96a5.7 5.7 0 1 0 11.4 0 5.7 5.7 0 1 0-11.4 0zM218.3 96a5.7 5.7 0 1 0 11.4 0 5.7 5.7 0 1 0-11.4 0zM154.3 112a5.7 5.7 0 1 0 11.4 0 5.7 5.7 0 1 0-11.4 0zM170.3 112a5.7 5.7 0 1 0 11.4 0 5.7 5.7 0 1 0-11.4 0zM186.3 112a5.7 5.7 0 1 0 11.4 0 5.7 5.7 0 1 0-11.4 0zM202.3 112a5.7 5.7 0 1 0 11.4 0 5.7 5.7 0 1 0-11.4 0zM138.3 128a5.7 5.7 0 1 0 11.4 0 5.7 5.7 0 1 0-11.4 0zM154.3 128a5.7 5.7 0 1 0 11.4 0 5.7 5.7 0 1 0-11.4 0zM170.3 128a5.7 5.7 0 1 0 11.4 0 5.7 5.7 0 1 0-11.4 0zM186.3 128a5.7 5.7 0 1 0 11.4 0 5.7 5.7 0 1 0-11.4 0zM122.3 144a5.7 5.7 0 1 0 11.4 0 5.7 5.7 0 1 0-11.4 0zM138.3 144a5.7 5.7 0 1 0 11.4 0 5.7 5.7 0 1 0-11.4 0zM154.3 144a5.7 5.7 0 1 0 11.4 0 5.7 5.7 0 1 0-11.4 0zM170.3 144a5.7 5.7 0 1 0 11.4 0 5.7 5.7 0 1 0-11.4 0zM122.3 160a5.7 5.7 0 1 0 11.4 0 5.7 5.7 0 1 0-11.4 0zM138.3 160a5.7 5.7 0 1 0 11.4 0 5.7 5.7 0 1 0-11.4 0zM154.3 160a5.7 5.7 0 1 0 11.4 0 5.7 5.7 0 1 0-11.4 0zM122.3 176a5.7 5.7 0 1 0 11.4 0 5.7 5.7 0 1 0-11.4 0zM138.3 176a5.7 5.7 0 1 0 11.4 0 5.7 5.7 0 1 0-11.4 0zM314.3 176a5.7 5.7 0 1 0 11.4 0 5.7 5.7 0 1 0-11.4 0zM330.3 176a5.7 5.7 0 1 0 11.4 0 5.7 5.7 0 1 0-11.4 0zM346.3 176a5.7 5.7 0 1 0 11.4 0 5.7 5.7 0 1 0-11.4 0zM122.3 192a5.7 5.7 0 1 0 11.4 0 5.7 5.7 0 1 0-11.4 0zM138.3 192a5.7 5.7 0 1 0 11.4 0 5.7 5.7 0 1 0-11.4 0zM282.3 192a5.7 5.7 0 1 0 11.4 0 5.7 5.7 0 1 0-11.4 0zM298.3 192a5.7 5.7 0 1 0 11.4 0 5.7 5.7 0 1 0-11.4 0zM314.3 192a5.7 5.7 0 1 0 11.4 0 5.7 5.7 0 1 0-11.4 0zM330.3 192a5.7 5.7 0 1 0 11.4 0 5.7 5.7 0 1 0-11.4 0zM122.3 208a5.7 5.7 0 1 0 11.4 0 5.7 5.7 0 1 0-11.4 0zM138.3 208a5.7 5.7 0 1 0 11.4 0 5.7 5.7 0 1 0-11.4 0zM266.3 208a5.7 5.7 0 1 0 11.4 0 5.7 5.7 0 1 0-11.4 0zM282.3 208a5.7 5.7 0 1 0 11.4 0 5.7 5.7 0 1 0-11.4 0zM298.3 208a5.7 5.7 0 1 0 11.4 0 5.7 5.7 0 1 0-11.4 0zM314.3 208a5.7 5.7 0 1 0 11.4 0 5.7 5.7 0 1 0-11.4 0zM122.3 224a5.7 5.7 0 1 0 11.4 0 5.7 5.7 0 1 0-11.4 0zM138.3 224a5.7 5.7 0 1 0 11.4 0 5.7 5.7 0 1 0-11.4 0zM250.3 224a5.7 5.7 0 1 0 11.4 0 5.7 5.7 0 1 0-11.4 0zM266.3 224a5.7 5.7 0 1 0 11.4 0 5.7 5.7 0 1 0-11.4 0zM282.3 224a5.7 5.7 0 1 0 11.4 0 5.7 5.7 0 1 0-11.4 0zM298.3 224a5.7 5.7 0 1 0 11.4 0 5.7 5.7 0 1 0-11.4 0zM122.3 240a5.7 5.7 0 1 0 11.4 0 5.7 5.7 0 1 0-11.4 0zM138.3 240a5.7 5.7 0 1 0 11.4 0 5.7 5.7 0 1 0-11.4 0zM234.3 240a5.7 5.7 0 1 0 11.4 0 5.7 5.7 0 1 0-11.4 0zM250.3 240a5.7 5.7 0 1 0 11.4 0 5.7 5.7 0 1 0-11.4 0zM266.3 240a5.7 5.7 0 1 0 11.4 0 5.7 5.7 0 1 0-11.4 0zM282.3 240a5.7 5.7 0 1 0 11.4 0 5.7 5.7 0 1 0-11.4 0zM122.3 256a5.7 5.7 0 1 0 11.4 0 5.7 5.7 0 1 0-11.4 0zM138.3 256a5.7 5.7 0 1 0 11.4 0 5.7 5.7 0 1 0-11.4 0zM218.3 256a5.7 5.7 0 1 0 11.4 0 5.7 5.7 0 1 0-11.4 0zM234.3 256a5.7 5.7 0 1 0 11.4 0 5.7 5.7 0 1 0-11.4 0zM250.3 256a5.7 5.7 0 1 0 11.4 0 5.7 5.7 0 1 0-11.4 0zM266.3 256a5.7 5.7 0 1 0 11.4 0 5.7 5.7 0 1 0-11.4 0zM122.3 272a5.7 5.7 0 1 0 11.4 0 5.7 5.7 0 1 0-11.4 0zM138.3 272a5.7 5.7 0 1 0 11.4 0 5.7 5.7 0 1 0-11.4 0zM202.3 272a5.7 5.7 0 1 0 11.4 0 5.7 5.7 0 1 0-11.4 0zM218.3 272a5.7 5.7 0 1 0 11.4 0 5.7 5.7 0 1 0-11.4 0zM234.3 272a5.7 5.7 0 1 0 11.4 0 5.7 5.7 0 1 0-11.4 0zM250.3 272a5.7 5.7 0 1 0 11.4 0 5.7 5.7 0 1 0-11.4 0zM266.3 272a5.7 5.7 0 1 0 11.4 0 5.7 5.7 0 1 0-11.4 0zM282.3 272a5.7 5.7 0 1 0 11.4 0 5.7 5.7 0 1 0-11.4 0zM298.3 272a5.7 5.7 0 1 0 11.4 0 5.7 5.7 0 1 0-11.4 0zM314.3 272a5.7 5.7 0 1 0 11.4 0 5.7 5.7 0 1 0-11.4 0zM330.3 272a5.7 5.7 0 1 0 11.4 0 5.7 5.7 0 1 0-11.4 0zM346.3 272a5.7 5.7 0 1 0 11.4 0 5.7 5.7 0 1 0-11.4 0zM362.3 272a5.7 5.7 0 1 0 11.4 0 5.7 5.7 0 1 0-11.4 0zM122.3 288a5.7 5.7 0 1 0 11.4 0 5.7 5.7 0 1 0-11.4 0zM138.3 288a5.7 5.7 0 1 0 11.4 0 5.7 5.7 0 1 0-11.4 0zM186.3 288a5.7 5.7 0 1 0 11.4 0 5.7 5.7 0 1 0-11.4 0zM202.3 288a5.7 5.7 0 1 0 11.4 0 5.7 5.7 0 1 0-11.4 0zM218.3 288a5.7 5.7 0 1 0 11.4 0 5.7 5.7 0 1 0-11.4 0zM234.3 288a5.7 5.7 0 1 0 11.4 0 5.7 5.7 0 1 0-11.4 0zM250.3 288a5.7 5.7 0 1 0 11.4 0 5.7 5.7 0 1 0-11.4 0zM266.3 288a5.7 5.7 0 1 0 11.4 0 5.7 5.7 0 1 0-11.4 0zM282.3 288a5.7 5.7 0 1 0 11.4 0 5.7 5.7 0 1 0-11.4 0zM298.3 288a5.7 5.7 0 1 0 11.4 0 5.7 5.7 0 1 0-11.4 0zM314.3 288a5.7 5.7 0 1 0 11.4 0 5.7 5.7 0 1 0-11.4 0zM330.3 288a5.7 5.7 0 1 0 11.4 0 5.7 5.7 0 1 0-11.4 0zM346.3 288a5.7 5.7 0 1 0 11.4 0 5.7 5.7 0 1 0-11.4 0zM362.3 288a5.7 5.7 0 1 0 11.4 0 5.7 5.7 0 1 0-11.4 0zM298.3 304a5.7 5.7 0 1 0 11.4 0 5.7 5.7 0 1 0-11.4 0zM314.3 304a5.7 5.7 0 1 0 11.4 0 5.7 5.7 0 1 0-11.4 0zM330.3 304a5.7 5.7 0 1 0 11.4 0 5.7 5.7 0 1 0-11.4 0zM346.3 304a5.7 5.7 0 1 0 11.4 0 5.7 5.7 0 1 0-11.4 0zM362.3 304a5.7 5.7 0 1 0 11.4 0 5.7 5.7 0 1 0-11.4 0zM282.3 320a5.7 5.7 0 1 0 11.4 0 5.7 5.7 0 1 0-11.4 0zM298.3 320a5.7 5.7 0 1 0 11.4 0 5.7 5.7 0 1 0-11.4 0zM314.3 320a5.7 5.7 0 1 0 11.4 0 5.7 5.7 0 1 0-11.4 0zM330.3 320a5.7 5.7 0 1 0 11.4 0 5.7 5.7 0 1 0-11.4 0zM346.3 320a5.7 5.7 0 1 0 11.4 0 5.7 5.7 0 1 0-11.4 0zM266.3 336a5.7 5.7 0 1 0 11.4 0 5.7 5.7 0 1 0-11.4 0zM282.3 336a5.7 5.7 0 1 0 11.4 0 5.7 5.7 0 1 0-11.4 0zM298.3 336a5.7 5.7 0 1 0 11.4 0 5.7 5.7 0 1 0-11.4 0zM314.3 336a5.7 5.7 0 1 0 11.4 0 5.7 5.7 0 1 0-11.4 0zM330.3 336a5.7 5.7 0 1 0 11.4 0 5.7 5.7 0 1 0-11.4 0zM250.3 352a5.7 5.7 0 1 0 11.4 0 5.7 5.7 0 1 0-11.4 0zM266.3 352a5.7 5.7 0 1 0 11.4 0 5.7 5.7 0 1 0-11.4 0zM282.3 352a5.7 5.7 0 1 0 11.4 0 5.7 5.7 0 1 0-11.4 0zM298.3 352a5.7 5.7 0 1 0 11.4 0 5.7 5.7 0 1 0-11.4 0zM314.3 352a5.7 5.7 0 1 0 11.4 0 5.7 5.7 0 1 0-11.4 0zM234.3 368a5.7 5.7 0 1 0 11.4 0 5.7 5.7 0 1 0-11.4 0zM250.3 368a5.7 5.7 0 1 0 11.4 0 5.7 5.7 0 1 0-11.4 0zM266.3 368a5.7 5.7 0 1 0 11.4 0 5.7 5.7 0 1 0-11.4 0zM282.3 368a5.7 5.7 0 1 0 11.4 0 5.7 5.7 0 1 0-11.4 0zM298.3 368a5.7 5.7 0 1 0 11.4 0 5.7 5.7 0 1 0-11.4 0zM218.3 384a5.7 5.7 0 1 0 11.4 0 5.7 5.7 0 1 0-11.4 0zM234.3 384a5.7 5.7 0 1 0 11.4 0 5.7 5.7 0 1 0-11.4 0zM250.3 384a5.7 5.7 0 1 0 11.4 0 5.7 5.7 0 1 0-11.4 0zM266.3 384a5.7 5.7 0 1 0 11.4 0 5.7 5.7 0 1 0-11.4 0zM282.3 384a5.7 5.7 0 1 0 11.4 0 5.7 5.7 0 1 0-11.4 0zM202.3 400a5.7 5.7 0 1 0 11.4 0 5.7 5.7 0 1 0-11.4 0zM218.3 400a5.7 5.7 0 1 0 11.4 0 5.7 5.7 0 1 0-11.4 0zM234.3 400a5.7 5.7 0 1 0 11.4 0 5.7 5.7 0 1 0-11.4 0zM250.3 400a5.7 5.7 0 1 0 11.4 0 5.7 5.7 0 1 0-11.4 0zM266.3 400a5.7 5.7 0 1 0 11.4 0 5.7 5.7 0 1 0-11.4 0zM186.3 416a5.7 5.7 0 1 0 11.4 0 5.7 5.7 0 1 0-11.4 0zM202.3 416a5.7 5.7 0 1 0 11.4 0 5.7 5.7 0 1 0-11.4 0zM218.3 416a5.7 5.7 0 1 0 11.4 0 5.7 5.7 0 1 0-11.4 0zM234.3 416a5.7 5.7 0 1 0 11.4 0 5.7 5.7 0 1 0-11.4 0zM250.3 416a5.7 5.7 0 1 0 11.4 0 5.7 5.7 0 1 0-11.4 0zM170.3 432a5.7 5.7 0 1 0 11.4 0 5.7 5.7 0 1 0-11.4 0zM186.3 432a5.7 5.7 0 1 0 11.4 0 5.7 5.7 0 1 0-11.4 0zM202.3 432a5.7 5.7 0 1 0 11.4 0 5.7 5.7 0 1 0-11.4 0zM218.3 432a5.7 5.7 0 1 0 11.4 0 5.7 5.7 0 1 0-11.4 0zM234.3 432a5.7 5.7 0 1 0 11.4 0 5.7 5.7 0 1 0-11.4 0zM170.3 448a5.7 5.7 0 1 0 11.4 0 5.7 5.7 0 1 0-11.4 0zM186.3 448a5.7 5.7 0 1 0 11.4 0 5.7 5.7 0 1 0-11.4 0zM202.3 448a5.7 5.7 0 1 0 11.4 0 5.7 5.7 0 1 0-11.4 0zM218.3 448a5.7 5.7 0 1 0 11.4 0 5.7 5.7 0 1 0-11.4 0zM170.3 464a5.7 5.7 0 1 0 11.4 0 5.7 5.7 0 1 0-11.4 0zM186.3 464a5.7 5.7 0 1 0 11.4 0 5.7 5.7 0 1 0-11.4 0zM202.3 464a5.7 5.7 0 1 0 11.4 0 5.7 5.7 0 1 0-11.4 0z"/></svg>