<svg width="100.0" height="100.0" viewBox="0 0 100.0 100.0" fill="none" xmlns="http://www.w3.org/2000/svg">
    <circle cx="2.5" cy="2.5" r="1.8" fill="currentColor"/>
    <circle cx="7.5" cy="2.5" r="1.8" fill="currentColor"/>
    <circle cx="12.5" cy="2.5" r="1.8" fill="currentColor"/>
    <circle cx="17.5" cy="2.5" r="1.8" fill="currentColor"/>
    <circle cx="22.5" cy="2.5" r="1.8" fill="currentColor"/>
    <circle cx="27.5" cy="2.5" r="1.8" fill="currentColor"/>
    <circle cx="32.5" cy="2.5" r="1.8" fill="currentColor"/>
    <circle cx="37.5" cy="2.5" r="1.8" fill="currentColor"/>
    <circle cx="42.5" cy="2.5" r="1.8" fill="currentColor"/>
    <circle cx="47.5" cy="2.5" r="1.8" fill="currentColor"/>
    <circle cx="52.5" cy="2.5" r="1.8" fill="currentColor"/>
    <circle cx="57.5" cy="2.5" r="1.8" fill="currentColor"/>
    <circle cx="62.5" cy="2.5" r="1.8" fill="currentColor"/>
    <circle cx="67.5" cy="2.5" r="1.8" fill="currentColor"/>
    <circle cx="72.5" cy="2.5" r="1.8" fill="currentColor"/>
    <circle cx="77.5" cy="2.5" r="1.8" fill="currentColor"/>
    <circle cx="82.5" cy="2.5" r="1.8" fill="currentColor"/>
    <circle cx="87.5" cy="2.5" r="1.8" fill="currentColor"/>
    <circle cx="92.5" cy="2.5" r="1.8" fill="currentColor"/>
    <circle cx="97.5" cy="2.5" r="1.8" fill="currentColor"/>
    <circle cx="2.5" cy="7.5" r="1.8" fill="currentColor"/>
    <circle cx="97.5" cy="7.5" r="1.8" fill="currentColor"/>
    <circle cx="2.5" cy="12.5" r="1.8" fill="currentColor"/>
    <circle cx="37.5" cy="12.5" r="1.8" fill="currentColor"/>
    <circle cx="42.5" cy="12.5" r="1.8" fill="currentColor"/>
    <circle cx="47.5" cy="12.5" r="1.8" fill="currentColor"/>
    <circle cx="52.5" cy="12.5" r="1.8" fill="currentColor"/>
    <circle cx="57.5" cy="12.5" r="1.8" fill="currentColor"/>
    <circle cx="62.5" cy="12.5" r="1.8" fill="currentColor"/>
    <circle cx="97.5" cy="12.5" r="1.8" fill="currentColor"/>
    <circle cx="2.5" cy="17.5" r="1.8" fill="currentColor"/>
    <circle cx="27.5" cy="17.5" r="1.8" fill="currentColor"/>
    <circle cx="32.5" cy="17.5" r="1.8" fill="currentColor"/>
    <circle cx="37.5" cy="17.5" r="1.8" fill="currentColor"/>
    <circle cx="42.5" cy="17.5" r="1.8" fill="currentColor"/>
    <circle cx="47.5" cy="17.5" r="1.8" fill="currentColor"/>
    <circle cx="52.5" cy="17.5" r="1.8" fill="currentColor"/>
    <circle cx="57.5" cy="17.5" r="1.8" fill="currentColor"/>
    <circle cx="62.5" cy="17.5" r="1.8" fill="currentColor"/>
    <circle cx="67.5" cy="17.5" r="1.8" fill="currentColor"/>
    <circle cx="72.5" cy="17.5" r="1.8" fill="currentColor"/>
    <circle cx="97.5" cy="17.5" r="1.8" fill="currentColor"/>
    <circle cx="2.5" cy="22.5" r="1.8" fill="currentColor"/>
    <circle cx="32.5" cy="22.5" r="1.8" fill="currentColor"/>
    <circle cx="37.5" cy="22.5" r="1.8" fill="currentColor"/>
    <circle cx="42.5" cy="22.5" r="1.8" fill="currentColor"/>
    <circle cx="47.5" cy="22.5" r="1.8" fill="currentColor"/>
    <circle cx="52.5" cy="22.5" r="1.8" fill="currentColor"/>
    <circle cx="57.5" cy="22.5" r="1.8" fill="currentColor"/>
    <circle cx="62.5" cy="22.5" r="1.8" fill="currentColor"/>
    <circle cx="67.5" cy="22.5" r="1.8" fill="currentColor"/>
    <circle cx="97.5" cy="22.5" r="1.8" fill="currentColor"/>
    <circle cx="2.5" cy="27.5" r="1.8" fill="currentColor"/>
    <circle cx="27.5" cy="27.5" r="1.8" fill="currentColor"/>
    <circle cx="37.5" cy="27.5" r="1.8" fill="currentColor"/>
    <circle cx="42.5" cy="27.5" r="1.8" fill="currentColor"/>
    <circle cx="47.5" cy="27.5" r="1.8" fill="currentColor"/>
    <circle cx="52.5" cy="27.5" r="1.8" fill="currentColor"/>
    <circle cx="57.5" cy="27.5" r="1.8" fill="currentColor"/>
    <circle cx="62.5" cy="27.5" r="1.8" fill="currentColor"/>
    <circle cx="72.5" cy="27.5" r="1.8" fill="currentColor"/>
    <circle cx="97.5" cy="27.5" r="1.8" fill="currentColor"/>
    <circle cx="2.5" cy="32.5" r="1.8" fill="currentColor"/>
    <circle cx="22.5" cy="32.5" r="1.8" fill="currentColor"/>
    <circle cx="27.5" cy="32.5" r="1.8" fill="currentColor"/>
    <circle cx="42.5" cy="32.5" r="1.8" fill="currentColor"/>
    <circle cx="47.5" cy="32.5" r="1.8" fill="currentColor"/>
    <circle cx="52.5" cy="32.5" r="1.8" fill="currentColor"/>
    <circle cx="57.5" cy="32.5" r="1.8" fill="currentColor"/>
    <circle cx="72.5" cy="32.5" r="1.8" fill="currentColor"/>
    <circle cx="77.5" cy="32.5" r="1.8" fill="currentColor"/>
    <circle cx="97.5" cy="32.5" r="1.8" fill="currentColor"/>
    <circle cx="2.5" cy="37.5" r="1.8" fill="currentColor"/>
    <circle cx="22.5" cy="37.5" r="1.8" fill="currentColor"/>
    <circle cx="27.5" cy="37.5" r="1.8" fill="currentColor"/>
    <circle cx="37.5" cy="37.5" r="1.8" fill="currentColor"/>
    <circle cx="62.5" cy="37.5" r="1.8" fill="currentColor"/>
    <circle cx="72.5" cy="37.5" r="1.8" fill="currentColor"/>
    <circle cx="77.5" cy="37.5" r="1.8" fill="currentColor"/>
    <circle cx="97.5" cy="37.5" r="1.8" fill="currentColor"/>
    <circle cx="2.5" cy="42.5" r="1.8" fill="currentColor"/>
    <circle cx="22.5" cy="42.5" r="1.8" fill="currentColor"/>
    <circle cx="27.5" cy="42.5" r="1.8" fill="currentColor"/>
    <circle cx="32.5" cy="42.5" r="1.8" fill="currentColor"/>
    <circle cx="47.5" cy="42.5" r="1.8" fill="currentColor"/>
    <circle cx="52.5" cy="42.5" r="1.8" fill="currentColor"/>
    <circle cx="67.5" cy="42.5" r="1.8" fill="currentColor"/>
    <circle cx="72.5" cy="42.5" r="1.8" fill="currentColor"/>
    <circle cx="77.5" cy="42.5" r="1.8" fill="currentColor"/>
    <circle cx="97.5" cy="42.5" r="1.8" fill="currentColor"/>
    <circle cx="2.5" cy="47.5" r="1.8" fill="currentColor"/>
    <circle cx="22.5" cy="47.5" r="1.8" fill="currentColor"/>
    <circle cx="27.5" cy="47.5" r="1.8" fill="currentColor"/>
    <circle cx="32.5" cy="47.5" r="1.8" fill="currentColor"/>
    <circle cx="37.5" cy="47.5" r="1.8" fill="currentColor"/>
    <circle cx="47.5" cy="47.5" r="1.8" fill="currentColor"/>
    <circle cx="52.5" cy="47.5" r="1.8" fill="currentColor"/>
    <circle cx="62.5" cy="47.5" r="1.8" fill="currentColor"/>
    <circle cx="67.5" cy="47.5" r="1.8" fill="currentColor"/>
    <circle cx="72.5" cy="47.5" r="1.8" fill="currentColor"/>
    <circle cx="77.5" cy="47.5" r="1.8" fill="currentColor"/>
    <circle cx="97.5" cy="47.5" r="1.8" fill="currentColor"/>
    <circle cx="2.5" cy="52.5" r="1.8" fill="currentColor"/>
    <circle cx="22.5" cy="52.5" r="1.8" fill="currentColor"/>
    <circle cx="27.5" cy="52.5" r="1.8" fill="currentColor"/>
    <circle cx="32.5" cy="52.5" r="1.8" fill="currentColor"/>
    <circle cx="42.5" cy="52.5" r="1.8" fill="currentColor"/>
    <circle cx="47.5" cy="52.5" r="1.8" fill="currentColor"/>
    <circle cx="52.5" cy="52.5" r="1.8" fill="currentColor"/>
    <circle cx="57.5" cy="52.5" r="1.8" fill="currentColor"/>
    <circle cx="67.5" cy="52.5" r="1.8" fill="currentColor"/>
    <circle cx="72.5" cy="52.5" r="1.8" fill="currentColor"/>
    <circle cx="77.5" cy="52.5" r="1.8" fill="currentColor"/>
    <circle cx="97.5" cy="52.5" r="1.8" fill="currentColor"/>
    <circle cx="2.5" cy="57.5" r="1.8" fill="currentColor"/>
    <circle cx="22.5" cy="57.5" r="1.8" fill="currentColor"/>
    <circle cx="27.5" cy="57.5" r="1.8" fill="currentColor"/>
    <circle cx="32.5" cy="57.5" r="1.8" fill="currentColor"/>
    <circle cx="37.5" cy="57.5" r="1.8" fill="currentColor"/>
    <circle cx="47.5" cy="57.5" r="1.8" fill="currentColor"/>
    <circle cx="52.5" cy="57.5" r="1.8" fill="currentColor"/>
    <circle cx="62.5" cy="57.5" r="1.8" fill="currentColor"/>
    <circle cx="67.5" cy="57.5" r="1.8" fill="currentColor"/>
    <circle cx="72.5" cy="57.5" r="1.8" fill="currentColor"/>
    <circle cx="77.5" cy="57.5" r="1.8" fill="currentColor"/>
    <circle cx="97.5" cy="57.5" r="1.8" fill="currentColor"/>
    <circle cx="2.5" cy="62.5" r="1.8" fill="currentColor"/>
    <circle cx="22.5" cy="62.5" r="1.8" fill="currentColor"/>
    <circle cx="27.5" cy="62.5" r="1.8" fill="currentColor"/>
    <circle cx="32.5" cy="62.5" r="1.8" fill="currentColor"/>
    <circle cx="37.5" cy="62.5" r="1.8" fill="currentColor"/>
    <circle cx="47.5" cy="62.5" r="1.8" fill="currentColor"/>
    <circle cx="52.5" cy="62.5" r="1.8" fill="currentColor"/>
    <circle cx="62.5" cy="62.5" r="1.8" fill="currentColor"/>
    <circle cx="67.5" cy="62.5" r="1.8" fill="currentColor"/>
    <circle cx="72.5" cy="62.5" r="1.8" fill="currentColor"/>
    <circle cx="77.5" cy="62.5" r="1.8" fill="currentColor"/>
    <circle cx="97.5" cy="62.5" r="1.8" fill="currentColor"/>
    <circle cx="2.5" cy="67.5" r="1.8" fill="currentColor"/>
    <circle cx="22.5" cy="67.5" r="1.8" fill="currentColor"/>
    <circle cx="27.5" cy="67.5" r="1.8" fill="currentColor"/>
    <circle cx="32.5" cy="67.5" r="1.8" fill="currentColor"/>
    <circle cx="37.5" cy="67.5" r="1.8" fill="currentColor"/>
    <circle cx="42.5" cy="67.5" r="1.8" fill="currentColor"/>
    <circle cx="57.5" cy="67.5" r="1.8" fill="currentColor"/>
    <circle cx="62.5" cy="67.5" r="1.8" fill="currentColor"/>
    <circle cx="67.5" cy="67.5" r="1.8" fill="currentColor"/>
    <circle cx="72.5" cy="67.5" r="1.8" fill="currentColor"/>
    <circle cx="77.5" cy="67.5" r="1.8" fill="currentColor"/>
    <circle cx="97.5" cy="67.5" r="1.8" fill="currentColor"/>
    <circle cx="2.5" cy="72.5" r="1.8" fill="currentColor"/>
    <circle cx="17.5" cy="72.5" r="1.8" fill="currentColor"/>
    <circle cx="27.5" cy="72.5" r="1.8" fill="currentColor"/>
    <circle cx="32.5" cy="72.5" r="1.8" fill="currentColor"/>
    <circle cx="37.5" cy="72.5" r="1.8" fill="currentColor"/>
    <circle cx="42.5" cy="72.5" r="1.8" fill="currentColor"/>
    <circle cx="57.5" cy="72.5" r="1.8" fill="currentColor"/>
    <circle cx="62.5" cy="72.5" r="1.8" fill="currentColor"/>
    <circle cx="67.5" cy="72.5" r="1.8" fill="currentColor"/>
    <circle cx="72.5" cy="72.5" r="1.8" fill="currentColor"/>
    <circle cx="82.5" cy="72.5" r="1.8" fill="currentColor"/>
    <circle cx="97.5" cy="72.5" r="1.8" fill="currentColor"/>
    <circle cx="2.5" cy="77.5" r="1.8" fill="currentColor"/>
    <circle cx="32.5" cy="77.5" r="1.8" fill="currentColor"/>
    <circle cx="42.5" cy="77.5" r="1.8" fill="currentColor"/>
    <circle cx="47.5" cy="77.5" r="1.8" fill="currentColor"/>
    <circle cx="52.5" cy="77.5" r="1.8" fill="currentColor"/>
    <circle cx="57.5" cy="77.5" r="1.8" fill="currentColor"/>
    <circle cx="67.5" cy="77.5" r="1.8" fill="currentColor"/>
    <circle cx="97.5" cy="77.5" r="1.8" fill="currentColor"/>
    <circle cx="2.5" cy="82.5" r="1.8" fill="currentColor"/>
    <circle cx="47.5" cy="82.5" r="1.8" fill="currentColor"/>
    <circle cx="52.5" cy="82.5" r="1.8" fill="currentColor"/>
    <circle cx="97.5" cy="82.5" r="1.8" fill="currentColor"/>
    <circle cx="2.5" cy="87.5" r="1.8" fill="currentColor"/>
    <circle cx="47.5" cy="87.5" r="1.8" fill="currentColor"/>
    <circle cx="52.5" cy="87.5" r="1.8" fill="currentColor"/>
    <circle cx="97.5" cy="87.5" r="1.8" fill="currentColor"/>
    <circle cx="2.5" cy="92.5" r="1.8" fill="currentColor"/>
    <circle cx="97.5" cy="92.5" r="1.8" fill="currentColor"/>
    <circle cx="2.5" cy="97.5" r="1.8" fill="currentColor"/>
    <circle cx="7.5" cy="97.5" r="1.8" fill="currentColor"/>
    <circle cx="12.5" cy="97.5" r="1.8" fill="currentColor"/>
    <circle cx="17.5" cy="97.5" r="1.8" fill="currentColor"/>
    <circle cx="22.5" cy="97.5" r="1.8" fill="currentColor"/>
    <circle cx="27.5" cy="97.5" r="1.8" fill="currentColor"/>
    <circle cx="32.5" cy="97.5" r="1.8" fill="currentColor"/>
    <circle cx="37.5" cy="97.5" r="1.8" fill="currentColor"/>
    <circle cx="42.5" cy="97.5" r="1.8" fill="currentColor"/>
    <circle cx="47.5" cy="97.5" r="1.8" fill="currentColor"/>
    <circle cx="52.5" cy="97.5" r="1.8" fill="currentColor"/>
    <circle cx="57.5" cy="97.5" r="1.8" fill="currentColor"/>
    <circle cx="62.5" cy="97.5" r="1.8" fill="currentColor"/>
    <circle cx="67.5" cy="97.5" r="1.8" fill="currentColor"/>
    <circle cx="72.5" cy="97.5" r="1.8" fill="currentColor"/>
    <circle cx="77.5" cy="97.5" r="1.8" fill="currentColor"/>
    <circle cx="82.5" cy="97.5" r="1.8" fill="currentColor"/>
    <circle cx="87.5" cy="97.5" r="1.8" fill="currentColor"/>
    <circle cx="92.5" cy="97.5" r="1.8" fill="currentColor"/>
    <circle cx="97.5" cy="97.5" r="1.8" fill="currentColor"/>
</svg>